<svg width="87" height="87" viewBox="0 0 87 87" fill="none" xmlns="http://www.w3.org/2000/svg">
<rect width="87" height="87" rx="10" fill="#181818"/>
<path fill-rule="evenodd" clip-rule="evenodd" d="M61.987 54.1201V33.8926L43.9982 23.7676V44.0041L26.0117 54.1246L44.005 64.2496L61.9757 54.1358L61.987 54.1426V54.1313L61.9937 54.1268L61.987 54.1201Z" fill="#FF6723"/>
<path d="M44.009 23.75L62 33.8728L56.375 37.5268L38.375 26.9382L44.009 23.75Z" fill="#FF6723"/>
<path d="M56.375 36.9605V43.8072L38.375 33.6012V26.9277L56.375 36.9605Z" fill="#FF6723"/>
<path d="M38.3709 33.5996L56.3754 43.7786L49.6254 47.5856L31.6299 37.3976L38.3709 33.5996Z" fill="#FF6723"/>
<path d="M49.6205 47.584V54.3948L31.625 43.8873V37.3848L49.6205 47.584Z" fill="#FF6723"/>
<path d="M31.625 43.8848L49.625 54.3045L44 57.4995L26 47.3745L31.625 43.8848Z" fill="#FF6723"/>
<path d="M44 57.5005V64.2505L26 54.1188V47.3688L44 57.5005ZM56.3795 36.9918L62 33.916V54.1615L56.3795 57.2845V36.9918ZM49.6205 47.587L56.3728 43.7665V57.289L49.6182 61.06L49.6205 47.587Z" fill="#FF6723"/>
<path d="M44.0003 57.4983L49.6185 54.2988V61.1006L43.998 64.2506L44.0003 57.4983Z" fill="#FF6723"/>
</svg>
