<svg width="54" height="54" viewBox="0 0 54 54" fill="none" xmlns="http://www.w3.org/2000/svg">
<path d="M18.2248 26.9992C20.5521 26.9992 22.784 26.0747 24.4297 24.4291C26.0753 22.7834 26.9998 20.5515 26.9998 18.2242C26.9998 15.8969 26.0753 13.665 24.4297 12.0194C22.784 10.3737 20.5521 9.44922 18.2248 9.44922C15.8975 9.44922 13.6656 10.3737 12.0199 12.0194C10.3743 13.665 9.4498 15.8969 9.4498 18.2242C9.4498 20.5515 10.3743 22.7834 12.0199 24.4291C13.6656 26.0747 15.8975 26.9992 18.2248 26.9992ZM33.5797 40.8907C35.0107 41.4766 36.8305 41.8492 39.1471 41.8492C49.9471 41.8492 49.9471 33.7492 49.9471 33.7492C49.9471 32.6756 49.5208 31.6458 48.7618 30.8864C48.0029 30.1269 46.9735 29.6999 45.8998 29.6992H33.4042C34.4653 30.9844 35.1025 32.6287 35.1025 34.4242V35.3854C35.0968 35.6128 35.0815 35.8398 35.0566 36.0658C34.8728 37.7525 34.3699 39.3893 33.5797 40.8907ZM45.8998 20.2492C45.8998 22.0394 45.1886 23.7563 43.9228 25.0222C42.6569 26.2881 40.94 26.9992 39.1498 26.9992C37.3596 26.9992 35.6427 26.2881 34.3768 25.0222C33.111 23.7563 32.3998 22.0394 32.3998 20.2492C32.3998 18.459 33.111 16.7421 34.3768 15.4762C35.6427 14.2104 37.3596 13.4992 39.1498 13.4992C40.94 13.4992 42.6569 14.2104 43.9228 15.4762C45.1886 16.7421 45.8998 18.459 45.8998 20.2492ZM4.0498 35.0992C4.0498 33.667 4.61873 32.2935 5.63143 31.2808C6.64412 30.2681 8.01764 29.6992 9.4498 29.6992H26.9998C28.432 29.6992 29.8055 30.2681 30.8182 31.2808C31.8309 32.2935 32.3998 33.667 32.3998 35.0992C32.3998 35.0992 32.3998 45.8992 18.2248 45.8992C4.0498 45.8992 4.0498 35.0992 4.0498 35.0992Z" fill="#FF6723"/>
</svg>
