<svg width="87" height="87" viewBox="0 0 87 87" fill="none" xmlns="http://www.w3.org/2000/svg">
<rect width="87" height="87" rx="10" fill="#181818"/>
<path d="M25.4375 23.75C24.0948 23.75 22.8072 24.2834 21.8578 25.2328C20.9084 26.1822 20.375 27.4698 20.375 28.8125V57.5H67.625V28.8125C67.625 27.4698 67.0916 26.1822 66.1422 25.2328C65.1928 24.2834 63.9052 23.75 62.5625 23.75H25.4375ZM17 59.1875H71C71 60.5302 70.4666 61.8178 69.5172 62.7672C68.5678 63.7166 67.2802 64.25 65.9375 64.25H22.0625C20.7198 64.25 19.4322 63.7166 18.4828 62.7672C17.5334 61.8178 17 60.5302 17 59.1875Z" fill="#FF6723"/>
</svg>
