<svg width="87" height="87" viewBox="0 0 87 87" fill="none" xmlns="http://www.w3.org/2000/svg">
<rect width="87" height="87" rx="14" fill="#181818"/>
<path d="M33.8842 44.7873C34.5817 43.3923 35.3415 42.0483 36.1635 40.7553C36.987 39.4623 37.8945 38.1985 38.886 36.964L35.4322 36.2598C35.2012 36.2013 34.9777 36.2088 34.7617 36.2823C34.5457 36.3558 34.3507 36.478 34.1767 36.649L28.7182 42.1098C28.6312 42.1953 28.602 42.2958 28.6305 42.4113C28.659 42.5268 28.731 42.6138 28.8465 42.6723L33.8842 44.7873ZM59.6557 27.9775C56.1937 28.225 53.145 28.9863 50.5095 30.2613C47.874 31.5363 45.3952 33.3348 43.0732 35.6568C41.4142 37.3188 39.966 39.0498 38.7285 40.8498C37.491 42.6498 36.471 44.4385 35.6685 46.216L42.0382 52.5723C43.8157 51.7698 45.6112 50.7498 47.4247 49.5123C49.2382 48.2748 50.9767 46.825 52.6402 45.163C54.9622 42.841 56.7607 40.372 58.0357 37.756C59.3107 35.14 60.072 32.101 60.3195 28.639C60.3195 28.5475 60.3127 28.4628 60.2992 28.3848C60.2857 28.3068 60.2377 28.2258 60.1552 28.1418C60.0727 28.0578 59.9917 28.0098 59.9122 27.9978C59.8327 27.9858 59.748 27.9783 59.658 27.9753M47.6295 40.6563C46.9695 39.9948 46.6395 39.202 46.6395 38.278C46.6395 37.354 46.9695 36.5613 47.6295 35.8998C48.2895 35.2383 49.0845 34.9083 50.0145 34.9098C50.9445 34.9113 51.7387 35.2413 52.3972 35.8998C53.0557 36.5583 53.3857 37.351 53.3872 38.278C53.3887 39.205 53.0587 39.997 52.3972 40.654C51.7357 41.311 50.9407 41.641 50.0122 41.644C49.0837 41.647 48.2887 41.317 47.6272 40.654M43.4647 54.397L45.582 59.4483C45.6405 59.5623 45.7267 59.6268 45.8407 59.6418C45.9547 59.6568 46.056 59.6208 46.1445 59.5338L51.6052 54.1158C51.7777 53.9433 51.9 53.7483 51.972 53.5308C52.0455 53.3148 52.053 53.092 51.9945 52.8625L51.2902 49.4088C50.0557 50.4018 48.792 51.307 47.499 52.1245C46.206 52.942 44.8597 53.6995 43.4647 54.397ZM62.4727 27.649C62.4547 31.399 61.7437 34.858 60.3397 38.026C58.9357 41.194 56.841 44.17 54.0555 46.954C53.9115 47.098 53.7742 47.2278 53.6437 47.3433C53.5132 47.4588 53.3767 47.5885 53.2342 47.7325L54.186 52.3945C54.306 53.0005 54.276 53.5878 54.096 54.1563C53.9145 54.7233 53.604 55.2258 53.1645 55.6638L46.8982 61.93C46.4512 62.377 45.906 62.542 45.2625 62.425C44.6205 62.3095 44.178 61.9488 43.935 61.3428L41.2395 54.9865L33.2655 46.9675L26.9092 44.272C26.3032 44.0305 25.947 43.588 25.8405 42.9445C25.734 42.301 25.9042 41.7558 26.3512 41.3088L32.6152 35.0425C33.0532 34.6045 33.5587 34.3023 34.1317 34.1358C34.7032 33.9678 35.292 33.9445 35.898 34.066L40.5577 35.0178C40.7017 34.8738 40.8247 34.744 40.9267 34.6285C41.0272 34.513 41.1495 34.3833 41.2935 34.2393C44.0775 31.4553 47.0535 29.3538 50.2215 27.9348C53.3895 26.5158 56.8492 25.7973 60.6007 25.7793C60.8422 25.7883 61.077 25.8363 61.305 25.9233C61.533 26.0103 61.7452 26.1528 61.9417 26.3508C62.1382 26.5488 62.2732 26.7535 62.3467 26.965C62.4202 27.1765 62.4607 27.4045 62.4682 27.649M28.5135 53.3755C29.394 52.4965 30.4635 52.0615 31.722 52.0705C32.9805 52.0795 34.05 52.525 34.9305 53.407C35.811 54.289 36.249 55.3585 36.2445 56.6155C36.24 57.8755 35.7975 58.945 34.917 59.824C33.666 61.075 32.1945 61.8625 30.5025 62.1865C28.8105 62.509 27.102 62.7528 25.377 62.9178C25.542 61.1628 25.7932 59.4468 26.1307 57.7698C26.4682 56.0928 27.261 54.628 28.5135 53.3755ZM30.12 55.0113C29.4525 55.6788 28.9897 56.4625 28.7317 57.3625C28.4737 58.2625 28.284 59.1955 28.1625 60.1615C29.13 60.04 30.0637 59.845 30.9637 59.5765C31.8637 59.308 32.6467 58.8408 33.3127 58.1748C33.7627 57.7248 33.9922 57.1885 34.0012 56.566C34.0087 55.942 33.7875 55.405 33.3375 54.955C32.8875 54.505 32.3512 54.2898 31.7287 54.3093C31.1062 54.3273 30.57 54.5613 30.12 55.0113Z" fill="#FF6723"/>
</svg>
