<svg width="87" height="87" viewBox="0 0 87 87" fill="none" xmlns="http://www.w3.org/2000/svg">
<rect width="87" height="87" rx="10" fill="#181818"/>
<path d="M43.9998 27.125C43.1455 27.128 42.3059 27.3471 41.5591 27.762C40.8123 28.1768 40.1826 28.7739 39.7287 29.4976C38.9767 29.0561 38.1219 28.8198 37.2498 28.8125C34.4739 28.8125 32.1873 31.0991 32.1873 33.875V40.0445L31.9764 40.3078C31.8515 40.4529 31.7317 40.5862 31.6068 40.7296C30.7397 41.7385 29.9301 42.7954 29.1819 43.8954L28.6537 44.5805C27.9594 45.4954 27.49 46.5608 27.2834 47.6906C27.2564 47.8171 27.1974 47.9352 27.1771 48.0618C27.0309 49.1253 27.1154 50.2078 27.4249 51.2357C27.7345 52.2636 28.2618 53.2128 28.9709 54.0187L32.9787 58.5547C34.0851 59.8149 35.4477 60.8243 36.9756 61.5155C38.5034 62.2066 40.1612 62.5636 41.8381 62.5625H50.7498C57.2551 62.5625 62.5623 57.2553 62.5623 50.75V35.5625C62.5623 32.7866 60.2757 30.5 57.4998 30.5C56.597 30.5 55.76 30.7633 55.0209 31.1851C54.567 30.4614 53.9373 29.8643 53.1905 29.4495C52.4437 29.0346 51.6041 28.8155 50.7498 28.8125C49.847 28.8125 49.01 29.0758 48.2709 29.4976C47.817 28.7739 47.1873 28.1768 46.4405 27.762C45.6937 27.3471 44.8541 27.128 43.9998 27.125ZM43.9998 30.5C44.9549 30.5 45.6873 31.2324 45.6873 32.1875V35.8797C45.147 35.6787 44.5763 35.5714 43.9998 35.5625H42.3123V32.1875C42.3123 31.2324 43.0447 30.5 43.9998 30.5ZM37.2498 32.1875C38.2049 32.1875 38.9373 32.9199 38.9373 33.875V35.5625H36.5647L36.0905 36.0367C36.0905 36.0367 35.7074 36.4248 35.5623 36.5649V33.875C35.5623 32.9199 36.2947 32.1875 37.2498 32.1875ZM50.7498 32.1875C51.7049 32.1875 52.4373 32.9199 52.4373 33.875V38.9375C52.4373 39.8926 51.7049 40.625 50.7498 40.625C49.7947 40.625 49.0623 39.8926 49.0623 38.9375V33.875C49.0623 32.9199 49.7947 32.1875 50.7498 32.1875ZM57.4998 33.875C58.4549 33.875 59.1873 34.6074 59.1873 35.5625V38.9375C59.1873 39.8926 58.4549 40.625 57.4998 40.625C56.5447 40.625 55.8123 39.8926 55.8123 38.9375V35.5625C55.8123 34.6074 56.5447 33.875 57.4998 33.875ZM37.9872 38.9375H43.9998C44.9499 38.9375 45.6873 39.6766 45.6873 40.625C45.6873 41.5734 44.9482 42.3125 43.9998 42.3125H38.7264L38.2522 42.9453L34.2967 47.9555L36.9342 50.0649L40.0443 46.1617C40.6518 46.4452 41.3437 46.8671 42.1014 47.4813C43.9002 48.9444 45.6873 51.3372 45.6873 55.8125H49.0623C49.0623 50.9744 47.1301 47.6383 45.0022 45.5812C45.6708 45.4409 46.3045 45.1681 46.8659 44.7789C47.4273 44.3896 47.9051 43.8918 48.2709 43.3149C49.01 43.7367 49.847 44 50.7498 44C52.0424 44 53.2287 43.4937 54.1248 42.6821C55.0209 43.4921 56.2072 44 57.4998 44C58.0763 43.9911 58.647 43.8838 59.1873 43.6828V50.75C59.1873 55.4294 55.4292 59.1875 50.7498 59.1875H41.8381C40.6411 59.1918 39.4571 58.9398 38.3656 58.4485C37.2741 57.9571 36.3004 57.2379 35.51 56.339L31.5022 51.7524C31.1556 51.3671 30.8886 50.917 30.7166 50.4282C30.5446 49.9393 30.4709 49.4213 30.4998 48.9039C30.4998 48.8904 30.5454 48.779 30.5521 48.7469C30.5589 48.6929 30.5454 48.6406 30.5521 48.5883C30.6314 48.2188 30.8896 47.5083 31.4482 46.5836C31.5207 46.4654 31.6338 46.3338 31.7131 46.2157L34.192 42.9453C36.0567 40.7634 37.6109 39.2936 37.9872 38.9375Z" fill="#FF6723"/>
</svg>
