<svg width="87" height="87" viewBox="0 0 87 87" fill="none" xmlns="http://www.w3.org/2000/svg">
<rect width="87" height="87" rx="10" fill="#181818"/>
<path fill-rule="evenodd" clip-rule="evenodd" d="M48.7496 29.3118C48.7497 27.6034 49.3481 25.9489 50.4408 24.6356C51.5335 23.3223 53.0515 22.433 54.7315 22.1221C56.4114 21.8112 58.1471 22.0984 59.6374 22.9337C61.1278 23.769 62.2786 25.0998 62.8901 26.6951C63.5016 28.2903 63.5353 30.0493 62.9852 31.6668C62.4352 33.2843 61.3361 34.6581 59.8789 35.5499C58.4216 36.4416 56.6981 36.795 55.0075 36.5486C53.3169 36.3022 51.766 35.4716 50.6238 34.2011L44.5106 37.5356L37.6706 41.4438C38.6278 43.1266 38.8786 45.1204 38.3681 46.9878L50.6238 53.6726C51.8229 52.3404 53.4694 51.495 55.2508 51.2968C57.0321 51.0987 58.8242 51.5618 60.2866 52.598C61.7491 53.6342 62.78 55.1714 63.1837 56.9177C63.5873 58.664 63.3356 60.4977 62.4762 62.0706C61.6169 63.6435 60.2098 64.846 58.5222 65.4497C56.8346 66.0534 54.984 66.0164 53.322 65.3455C51.66 64.6746 50.3022 63.4167 49.5065 61.8107C48.7109 60.2046 48.5328 58.3623 49.0061 56.6336L36.7503 49.9511C35.8163 50.99 34.6042 51.7395 33.2575 52.1111C31.9108 52.4827 30.4859 52.4608 29.1512 52.0479C27.8166 51.635 26.6282 50.8484 25.7266 49.7812C24.8251 48.7141 24.248 47.411 24.0638 46.0262C23.8796 44.6413 24.096 43.2327 24.6873 41.967C25.2786 40.7013 26.2201 39.6314 27.4004 38.884C28.5807 38.1366 29.9503 37.743 31.3473 37.7496C32.7444 37.7563 34.1102 38.163 35.2833 38.9216L42.8658 34.5881L49.0061 31.2378C48.8366 30.6098 48.7503 29.9623 48.7496 29.3118ZM56.0621 25.3743C55.0178 25.3743 54.0163 25.7892 53.2778 26.5276C52.5394 27.266 52.1246 28.2675 52.1246 29.3118C52.1246 30.3561 52.5394 31.3576 53.2778 32.0961C54.0163 32.8345 55.0178 33.2493 56.0621 33.2493C57.1064 33.2493 58.1079 32.8345 58.8463 32.0961C59.5847 31.3576 59.9996 30.3561 59.9996 29.3118C59.9996 28.2675 59.5847 27.266 58.8463 26.5276C58.1079 25.7892 57.1064 25.3743 56.0621 25.3743ZM31.3121 41.1243C30.2678 41.1243 29.2663 41.5392 28.5278 42.2776C27.7894 43.016 27.3746 44.0175 27.3746 45.0618C27.3746 46.1061 27.7894 47.1076 28.5278 47.8461C29.2663 48.5845 30.2678 48.9993 31.3121 48.9993C32.3564 48.9993 33.3579 48.5845 34.0963 47.8461C34.8347 47.1076 35.2496 46.1061 35.2496 45.0618C35.2496 44.0175 34.8347 43.016 34.0963 42.2776C33.3579 41.5392 32.3564 41.1243 31.3121 41.1243ZM52.1246 58.5618C52.1246 57.5175 52.5394 56.516 53.2778 55.7776C54.0163 55.0392 55.0178 54.6243 56.0621 54.6243C57.1064 54.6243 58.1079 55.0392 58.8463 55.7776C59.5847 56.516 59.9996 57.5175 59.9996 58.5618C59.9996 59.6061 59.5847 60.6076 58.8463 61.3461C58.1079 62.0845 57.1064 62.4993 56.0621 62.4993C55.0178 62.4993 54.0163 62.0845 53.2778 61.3461C52.5394 60.6076 52.1246 59.6061 52.1246 58.5618Z" fill="#FF6723"/>
</svg>
